<?xml version="1.0" encoding="UTF-8"?>
<svg id="Calque_1" xmlns="http://www.w3.org/2000/svg" version="1.1" viewBox="0 0 400.2 477.5">
  
  <defs>
    
  </defs>
  <g class="st1">
    <g id="Calque_2">
      <g id="Calque_1-2">
        <g>
          <path class="st0" d="M239.2,152.4c2.9-.5,3.9-1.4,5.2-3.3.1-2.5.4-5.1.8-7.6.8-4.3,2.8-10.1,8.1-13.5l.4.7c-4.2,2.9-2.1,9.1-1.3,10.9.5,1.3,1.2,2.6,1.8,3.8,1.3,2.4,2.6,5,2.9,7.7.7,5.3.2,6.1-2.7,10.8,0,0-5-6.3-15.3-9.5Z"></path>
          <path class="st0" d="M254.1,161.4c1.9.2,3.2-.4,4.2-1.3s2-2.3,2.5-3.8,1.1-3.5,1.9-5.2c1.7-4,5-9.2,10.8-11.4l.2.8c-4.7,2-4,8.4-3.7,10.3.2,1.4.6,2.8,1,4.1.7,2.7,1.4,5.4,1.2,8.2-.5,5.3-2.4,7.3-6.2,11.2,0,0-4.2-7.4-11.9-12.8Z"></path>
          <path class="st0" d="M281.1,206.9c.7-2.3.5-4.5,1.9-6.5.8-1.3,1.7-2.6,2.4-4,2.3-4.5,3.1-9.9,2.4-15.5-.2-1.7-.5-3.4-1-5.1-.8-2.9-1.9-5.8-3.4-8.6l-.7.3c1.1,2.8-.3,6.1-2.1,7.9-2.3,2.3-6.7,2.9-10.3,1.4-.9-.4-1.8-.8-2.5-1.4,7,10.6,10.6,18.1,13.5,31.5Z"></path>
          <path class="st0" d="M148.7,154.7c-1.5-1-1.4-1.7-1.6-2.8,0-1.8.3-3.1-.1-5.6-.8-4.3-2.7-10.1-7.9-13.6l-.4.7c4.1,3,2,9.1,1.2,10.9-.5,1.3-1.2,2.6-1.9,3.8-1.3,2.4-3,3.8-3.3,6.5-.7,5.3.2,7.3,1.6,9.5,0,0,6-6.1,12.5-9.4Z"></path>
          <path class="st0" d="M113.8,203.1c.5-3.1.8-6.3.7-8.8-.2-2.4-1-4.8-1.8-7.1-.5-1.4-1-3-1.4-4.5-1.2-4.9-.7-10.3,1.3-15.6.6-1.6,1.3-3.2,2.2-4.7,1.4-2.6,3.2-5.1,5.3-7.6l.6.5c-1.7,2.5-1.2,6,.2,8.2,1.7,2.8,5.8,4.3,9.7,3.8,1-.1,1.9-.4,2.8-.8-11.4,9.1-17,28.3-19.6,36.6Z"></path>
          <path class="st0" d="M107.5,215.9c-6.4-2.6-10-2.3-16.7-2.1h-1.3s1.1.7,1.1.7c.3.2.5.4.8.5.1,0,.2.2.4.3,0,0,0,0,0,0,.2.2.5.4.7.5.3.2.6.5.9.8,0,0,0,0,0,0,.3.2.5.5.8.7h0c.3.3.5.6.8.8,0,0,0,0,0,0,.2.2.4.5.7.7.7.8,1.3,1.7,1.9,2.6.1.1.2.3.3.5.2.2.3.5.5.8,0,0,0,0,0,0,.2.3.3.6.5.8,0,.1.1.2.2.3.1.3.2.5.3.8.3.6.5,1.3.7,1.9,0,.1,0,.3.1.4,0,.3.2.5.2.8,0,0,0,0,0,0,0,.3.2.6.2.9,0,0,0,.1,0,.1.3.6.4,1.4.4,2.2,0,.1,0,.3,0,.4.2,2.2,0,4.4-.5,6.5-.2.7-.4,1.4-.6,2-.2.4-.4.8-.6,1.2-.1.5-.3,1.1-.5,1.6-1.3,3.9-3.4,7.3-4.6,11.2-.7,2.3-1.3,4.7-1.7,7.1-.3,2-.3,4.1-.2,6.1,0,.2,0,.3,0,.5,0,0,0,1,0,1.2h0c0,5.6,1.2,11.1,3.4,16.1.8,1.8,1.7,3.6,2.6,5.6,1.8,4,2.1,8,2.1,12s1.3,10.6,3.7,15.4h0c0,0,0,.1,0,.1,15,30.6,19.5,31.6,26.8,37.2s7.6,5.5,11.8,7.1c7.4,2.8,26.4,4.9,26.1,4.5-8.2-10.9-10.2-19.7-10.2-19.7-3.1,1.1-4.7.6-6.6.1-6.7-1.7-12-9.1-14.6-13.8s-5.2-12.4-6-16.3c-1.3-6.3,1.6-12.3,1-12.4-6.5-.7-6.2-4.6-7.3-10.6-1.7-9.4-3.3-20.9-3.4-22.9-.4-9.3-5.3-14.8-6.5-18.3s.2-10.4-1.5-11.6c-4.2-3.1-6-6.4-7.4-9.2-2.2-4.2,1-16.8.9-16.8Z"></path>
          <path class="st0" d="M289.4,215.9c6.4-2.6,10-2.3,16.7-2.1h1.3s-1.1.7-1.1.7c-.3.2-.5.4-.8.5-.1,0-.3.2-.4.3,0,0,0,0,0,0-.2.2-.5.4-.7.5-.3.2-.6.5-.9.8,0,0,0,0,0,0-.3.2-.5.5-.8.7h0c-.3.3-.5.6-.8.8,0,0,0,0,0,0-.2.2-.4.5-.7.7-.7.8-1.3,1.7-1.9,2.6-.1.1-.2.3-.3.5-.2.2-.3.5-.5.7,0,0,0,0,0,0-.2.3-.3.6-.5.8,0,.1-.1.2-.2.3-.1.3-.2.5-.3.8-.3.6-.5,1.3-.7,1.9,0,.1,0,.3-.1.4,0,.3-.2.5-.2.8,0,0,0,0,0,0,0,.3-.2.6-.2.9,0,0,0,.1,0,.1-.3.6-.4,1.4-.4,2.2,0,.1,0,.3,0,.4-.2,2.2,0,4.4.5,6.5.2.7.4,1.4.6,2,.2.4.4.8.6,1.2.1.5.3,1.1.5,1.6,1.3,3.9,3.4,7.3,4.6,11.2.7,2.3,1.3,4.7,1.7,7.1.3,2,.3,4.1.2,6.1,0,.2,0,.3,0,.5,0,0,0,1,0,1.2h0c0,5.6-1.2,11.1-3.4,16.1-.8,1.8-1.7,3.6-2.6,5.6-1.8,4-2.1,8-2.1,12s-1.3,10.6-3.7,15.4h0c0,0,0,.1,0,.1-15,30.6-19.5,31.6-26.8,37.2-4.7,3.6-7.6,5.5-11.8,7.1-7.4,2.8-26.4,4.9-26.1,4.5,8.2-10.9,10.2-19.7,10.2-19.7,3.1,1.1,4.7.6,6.6.1,6.7-1.7,12-9.1,14.6-13.8,3.4-6.3,5.2-12.4,6-16.3,1.3-6.3-1.6-12.3-1-12.4,6.5-.7,6.2-4.6,7.3-10.6,1.7-9.4,3.3-20.9,3.4-22.9.4-9.3,5.3-14.8,6.5-18.3s-.2-10.4,1.5-11.6c4.2-3.1,6-6.4,7.4-9.2,2.2-4.2-1-16.8-.9-16.8Z"></path>
          <path class="st0" d="M235.9,150.5c.8-5-.1-8.4-2.6-13.5-.7-1.5-1.6-3-2.6-4.5-1.6-2.5-3.6-4.9-6-7.1l-.6.5c1.9,2.3,1.7,5.9.5,8.2-1.5,2.9-5.4,4.8-9.3,4.6-3.7-.2-7.4-2.3-9.6-5.5-3.6-5.3-2.9-11.3-2.2-17.7.4-3,.7-6.1.6-9.1-.1-2.7-.8-5.6-2.1-8.4-2.6-5.8-7.7-11.1-15.4-13l-1-.2.6.9c5,7.4,4.7,16.5-.7,23.1-1.3,1.6-2.8,3-4.3,4.4-1.9,1.8-3.9,3.7-5.4,5.8-2.5,3.6-3.5,7.8-2.7,11.9h0c.2,1,0,2-.4,2.8-.7,1.1-1.2,2.1-1.8,3.2-2.5,1.1-4.7-1.5-6.2-3.6-.1-2.3-.3-4.7-.7-7-.8-3.9-2.7-9.3-7.9-12.6l-.4.7c4.1,2.8,2,8.4,1.2,10-.5,1.2-1.2,2.4-1.9,3.5-1.3,2.2-2.6,4.6-3,7.1-.7,4.9,2.2,9.4,5,13.7l1.1,2.2c11.7-4.5,14.1-6.8,21.9-12.5,5.8-4.3,11.1-11.9,18.2-10.4s6.8,5.2,10.6,8.1c6.8,5.1,16.9,11.8,27.2,14.3Z"></path>
        </g>
        <path class="st0" d="M393.3,181.9c-3.3-49.1-25-94.9-61-128.8C296.1,19,248.9.1,199.2,0h0c-49.6.1-96.9,19-133.1,53.1C30.1,87,8.4,132.7,5.1,181.9c-.2,2.2.8,4.4,2.6,5.7,1.2.9,2.6,1.4,4,1.4s1.5-.1,2.2-.4l32.3-11.4,29.4,24.4c1.2,1,2.7,1.5,4.2,1.5s2-.2,2.9-.7c2.3-1.1,3.8-3.5,3.8-6.1v-1.3c0-62.2,50.6-113,112.7-113.2,62.2.3,112.7,51.1,112.7,113.2s0,1.3,0,1.3c0,2.6,1.5,5,3.8,6.1.9.4,1.9.7,2.9.7,1.5,0,3-.5,4.2-1.5l29.4-24.4,32.3,11.4c.7.2,1.5.4,2.2.4,1.4,0,2.8-.5,4-1.4,1.8-1.3,2.8-3.5,2.6-5.7ZM350.9,169.7l-32.3,26.8c0-.5,0-.9,0-1.3,0-65.9-53.5-119.6-119.3-119.9-65.9.3-119.4,53.9-119.4,119.9s0,.9,0,1.3l-32.3-26.8-35.8,12.7C18.3,84.5,99.8,6.9,199.2,6.7c99.4.3,180.9,77.9,187.5,175.7l-35.8-12.7Z"></path>
        <g class="st1">
          <path class="st0" d="M68.2,165.1l-4.8-1.4c.2-.6.3-1.2.4-1.7,0-.5,0-.9-.1-1.2-.1-.3-.4-.6-.8-.8-.4-.2-.9-.5-1.6-.6l-24-6.9,1.8-6.4,24.3,6.9c1.7.5,3.1,1.1,4.1,1.8,1,.7,1.7,1.7,2,2.8.3,1.1.2,2.6-.3,4.4l-.9,3.1Z"></path>
        </g>
        <g class="st1">
          <path class="st0" d="M75.3,142.6c-.9,2.1-1.9,3.6-3.2,4.5-1.3.9-2.8,1.3-4.5,1.2-1.7,0-3.6-.5-5.6-1.4l-11.1-4.6c-2.1-.9-3.7-1.8-5-3-1.2-1.1-2-2.5-2.3-4-.3-1.5,0-3.4.9-5.5.9-2.1,2-3.6,3.2-4.5,1.3-.9,2.8-1.3,4.4-1.3,1.7,0,3.5.5,5.6,1.4l11.1,4.6c2,.8,3.7,1.8,5,3,1.3,1.1,2,2.5,2.3,4,.3,1.6,0,3.4-.9,5.5ZM70.6,140.6c.3-.6.3-1.2,0-1.6-.2-.4-.6-.8-1.1-1.1-.5-.3-1-.6-1.6-.8l-14.4-5.9c-.6-.2-1.2-.4-1.7-.6-.6-.1-1.1-.1-1.6,0-.5.2-.8.6-1.1,1.2-.2.6-.3,1.1,0,1.6.2.4.6.8,1.1,1.1.5.3,1,.6,1.6.8l14.4,5.9c.6.2,1.1.4,1.7.6s1.1.1,1.6,0c.5-.1.8-.5,1.1-1.2Z"></path>
        </g>
        <g class="st1">
          <path class="st0" d="M84.9,123.6c-1.2,2-2.4,3.4-3.8,4.1-1.4.7-2.9.9-4.5.6-1.6-.3-3.4-1.1-5.3-2.2l-19.3-11.4,3.4-5.7,20.2,11.9c.6.3,1.2.6,1.8.9.6.3,1.2.3,1.7.3.5,0,1-.4,1.3-1,.4-.6.4-1.2.2-1.7-.2-.5-.6-.9-1.1-1.4-.5-.4-1.1-.8-1.7-1.1l-20.2-11.9,3.4-5.7,19.3,11.4c2,1.2,3.5,2.4,4.5,3.6,1.1,1.3,1.6,2.6,1.7,4.2,0,1.5-.5,3.3-1.7,5.3Z"></path>
        </g>
        <g class="st1">
          <path class="st0" d="M93.1,110.5l-21.4-16.6-2.8,3.6-4.2-3.3,9.7-12.5,4.2,3.3-2.8,3.6,21.4,16.6-4.1,5.3Z"></path>
        </g>
        <g class="st1">
          <path class="st0" d="M101.8,99.7l-23.1-22.7,9.5-9.7,3.5,3.4-4.8,4.9,5.7,5.6,3.7-3.8,3.5,3.5-3.7,3.8,6.9,6.8,4.9-5,3.5,3.4-9.6,9.8Z"></path>
        </g>
        <g class="st1">
          <path class="st0" d="M120.2,83.5c-1.5,1.2-2.9,1.9-4.4,2.1-1.4.2-2.9,0-4.3-.8-1.4-.8-2.9-2.1-4.5-3.9l3.9-4.3c.9,1.1,1.7,1.9,2.4,2.4.7.5,1.3.8,1.8.9.5,0,1,0,1.4-.4.5-.4.7-.9.6-1.4-.1-.5-.4-1-.7-1.5-.8-1-1.8-1.7-2.8-2.1-1-.4-2.2-.6-3.6-.7l-3.6-.3c-1.5-.1-3-.4-4.5-1-1.4-.5-2.8-1.6-4-3.1-1.7-2.2-2.4-4.3-2.1-6.4s1.5-3.9,3.5-5.6c1.3-1,2.5-1.6,3.6-1.7,1.1-.2,2.2,0,3.2.4,1,.4,1.9,1,2.7,1.7.8.7,1.5,1.4,2.1,2.2l-4,4.2c-.6-.7-1.2-1.4-1.7-1.9-.5-.5-1-.8-1.4-.9s-.9,0-1.4.3c-.5.4-.7.9-.5,1.5.1.6.4,1.1.7,1.6.7.9,1.6,1.5,2.5,1.8.9.3,1.9.4,3.1.6l3.4.3c1.8.1,3.5.5,5.2,1.1,1.7.6,3.2,1.8,4.6,3.6.9,1.2,1.5,2.5,1.8,3.8.3,1.4.2,2.7-.3,4-.5,1.3-1.4,2.5-2.6,3.5Z"></path>
        </g>
        <g class="st1">
          <path class="st0" d="M137.7,71.4l-15-28.7,5.9-3.1,15,28.7-5.9,3.1Z"></path>
        </g>
        <g class="st1">
          <path class="st0" d="M148,66.1l-11.4-30.3,4.4-1.7,11.3,12.4-5.5-14.6,5.2-1.9,11.4,30.3-4.2,1.6-11.7-13.5,5.9,15.7-5.4,2Z"></path>
        </g>
        <g class="st1">
          <path class="st0" d="M169.9,58.8l-5.8-26.5-4.5,1-1.1-5.2,15.4-3.4,1.1,5.2-4.4,1,5.8,26.5-6.6,1.4Z"></path>
        </g>
        <g class="st1">
          <path class="st0" d="M183.5,56.2l-2.8-32.3,13.6-1.2.4,4.9-6.9.6.7,8,5.3-.5.4,4.9-5.3.5.8,9.6,7-.6.4,4.8-13.6,1.2Z"></path>
        </g>
        <g class="st1">
          <path class="st0" d="M199.9,55l2-32.3,8.3.5c2,.1,3.8.5,5.3,1s2.6,1.5,3.3,2.8c.8,1.3,1.1,3.1.9,5.3,0,1.3-.3,2.5-.5,3.5-.3,1-.7,1.9-1.3,2.6-.6.7-1.4,1.3-2.4,1.8l3.2,15.9-6.9-.4-2.4-14.7h-1.9c0-.1-.9,14.4-.9,14.4l-6.7-.4ZM207.7,36.8h1.9c.9.2,1.7,0,2.2-.3.5-.3.9-.8,1.2-1.5.3-.7.4-1.5.5-2.4,0-1.4,0-2.5-.5-3.3-.4-.8-1.3-1.2-2.5-1.3h-2.2c0-.1-.5,8.8-.5,8.8Z"></path>
        </g>
        <g class="st1">
          <path class="st0" d="M222.4,47.3l.8-4.1,9.5,1.9-.8,4.1-9.5-1.9Z"></path>
        </g>
        <g class="st1">
          <path class="st0" d="M233.7,59.5l10.3-30.7,9.6,3.2c1.7.6,3,1.4,3.9,2.5.9,1.1,1.4,2.4,1.5,3.9,0,1.5-.2,3.2-.8,5.1-.8,2.4-1.8,4.1-2.9,5.1-1.2,1-2.4,1.5-3.8,1.6-1.4,0-2.9-.2-4.5-.7l-2.6-.9-4.4,13-6.3-2.1ZM246,43.8l2.1.7c.8.3,1.4.3,1.9.1.5-.2.9-.5,1.3-1.1.3-.6.7-1.3,1-2.2.3-.8.4-1.5.5-2.1,0-.6,0-1.2-.3-1.7-.3-.5-.8-.9-1.7-1.2l-2.1-.7-2.7,8.2Z"></path>
        </g>
        <g class="st1">
          <path class="st0" d="M260.6,70.9c-2-1.1-3.4-2.3-4.2-3.6-.8-1.4-1-2.9-.8-4.6.2-1.7.9-3.5,1.9-5.5l5.6-10.7c1-2,2.2-3.5,3.4-4.7,1.2-1.1,2.6-1.8,4.2-1.9,1.6-.1,3.3.3,5.4,1.4,2,1.1,3.4,2.3,4.2,3.6.8,1.4,1.1,2.9.9,4.5-.2,1.7-.9,3.5-1.9,5.5l-5.6,10.7c-1,2-2.2,3.5-3.4,4.7-1.3,1.2-2.7,1.8-4.2,1.9-1.6.1-3.4-.3-5.4-1.4ZM262.9,66.4c.6.3,1.2.4,1.6.2.5-.2.9-.5,1.2-1,.4-.5.7-1,1-1.5l7.2-13.8c.3-.6.5-1.1.7-1.7.2-.6.2-1.1,0-1.6-.1-.5-.5-.9-1.1-1.2-.6-.3-1.1-.4-1.6-.2s-.9.5-1.2,1c-.4.5-.7,1-1,1.5l-7.2,13.8c-.3.5-.5,1.1-.7,1.7-.2.6-.2,1.1-.1,1.6.1.5.5.9,1.1,1.2Z"></path>
        </g>
        <g class="st1">
          <path class="st0" d="M271.6,76.4l20.1-25.4,5.7,4.4-8.8,17,14.3-12.8,5.5,4.2-19.3,26-3.8-2.9,12.7-17.5-15.9,15-3.4-2.6,10.2-19.5-13.6,17-3.8-2.9Z"></path>
        </g>
        <g class="st1">
          <path class="st0" d="M291.3,92.4l23.6-22.2,7,7.4c1.2,1.3,2,2.7,2.3,4,.3,1.4,0,2.7-.5,4.1-.6,1.4-1.7,2.8-3.1,4.1-1.8,1.7-3.5,2.7-5,3.1-1.5.3-2.9.2-4.1-.4-1.3-.6-2.5-1.5-3.6-2.7l-1.8-2-10,9.4-4.6-4.9ZM309.6,84.4l1.5,1.6c.6.6,1.1.9,1.6,1,.5,0,1.1,0,1.6-.4.6-.3,1.2-.8,1.9-1.5.6-.6,1.1-1.1,1.5-1.6.4-.5.6-1,.5-1.6,0-.6-.3-1.2-.9-1.8l-1.5-1.6-6.3,5.9Z"></path>
        </g>
        <g class="st1">
          <path class="st0" d="M305.3,108.1l25.9-19.4,4,5.4-25.9,19.4-4-5.4Z"></path>
        </g>
        <g class="st1">
          <path class="st0" d="M312.2,117.5l27.7-16.8,7.1,11.6-4.2,2.5-3.6-5.9-6.9,4.2,2.7,4.5-4.2,2.6-2.7-4.5-8.3,5,3.6,6-4.1,2.5-7.1-11.7Z"></path>
        </g>
        <g class="st1">
          <path class="st0" d="M320.6,131.8l29.6-13.2,3.4,7.6c.8,1.9,1.3,3.6,1.5,5.1.2,1.6-.1,3-.9,4.2s-2.2,2.4-4.3,3.3c-1.2.5-2.3.9-3.4,1.2-1,.2-2,.3-2.9,0-.9-.2-1.8-.6-2.7-1.3l-12.6,10.2-2.8-6.3,11.9-8.9-.8-1.7-13.3,5.9-2.7-6.1ZM340.4,130.3l.8,1.7c.4.9.8,1.5,1.4,1.8.5.3,1.2.5,1.9.4.7,0,1.5-.3,2.4-.7,1.3-.6,2.2-1.2,2.7-2,.5-.7.5-1.7,0-2.9l-.9-2-8.2,3.6Z"></path>
        </g>
        <g class="st1">
          <path class="st0" d="M330.8,159.7c-.5-1.8-.6-3.4-.3-4.9.3-1.4,1.1-2.7,2.4-3.7,1.3-1,3-1.9,5.3-2.7l2.5,5.2c-1.3.4-2.4.8-3.1,1.3-.8.4-1.3.9-1.5,1.4-.2.5-.3,1-.1,1.5.2.7.6,1,1.1,1.1.5,0,1.1,0,1.6-.1,1.3-.4,2.3-1,3-1.8.7-.8,1.4-1.9,2-3.1l1.6-3.2c.7-1.4,1.5-2.7,2.6-3.8s2.5-2,4.4-2.5c2.6-.8,4.9-.6,6.7.4,1.8,1,3.1,2.8,3.8,5.3.5,1.6.5,2.9.3,4-.3,1.1-.8,2-1.6,2.8-.8.8-1.6,1.4-2.6,1.9-1,.5-1.9.9-2.8,1.2l-2.4-5.3c.9-.3,1.7-.6,2.3-.9s1.1-.6,1.4-1c.3-.4.4-.8.2-1.4-.2-.6-.6-1-1.2-1.1-.6-.1-1.2,0-1.7,0-1.2.3-2,.9-2.6,1.6-.6.7-1.1,1.6-1.7,2.7l-1.6,3.1c-.8,1.6-1.8,3.1-3,4.4-1.2,1.3-2.9,2.3-5,2.9-1.5.4-2.9.5-4.2.2-1.4-.3-2.6-.9-3.6-1.8-1-.9-1.8-2.2-2.2-3.7Z"></path>
        </g>
        <path class="st0" d="M390.8,289.8c-1.2-.9-2.6-1.3-4-1.3s-1.5.1-2.2.4l-32.3,11.4-29.5-24.4c-1.2-1-2.7-1.5-4.2-1.5s-2,.2-2.9.6c-2.3,1.1-3.8,3.5-3.8,6.1v1.3c0,62.2-50.6,113-112.8,113.2-62.2-.3-112.9-51.1-112.9-113.2s0-1.3,0-1.3c0-2.6-1.5-5-3.8-6.1-.9-.4-1.9-.7-2.9-.7-1.5,0-3,.5-4.2,1.5l-29.5,24.4-32.3-11.4c-.7-.2-1.5-.4-2.2-.4-1.4,0-2.9.5-4,1.4-1.8,1.3-2.8,3.5-2.6,5.7,3.3,49.1,25,94.9,61.1,128.8,36.2,34.1,83.6,52.9,133.3,53.1h0c49.7-.1,97-19,133.2-53.1,36.1-33.9,57.8-79.7,61.1-128.8.1-2.2-.8-4.4-2.6-5.7ZM199,470.8c-99.5-.3-181.1-77.9-187.7-175.7l35.9,12.7,32.4-26.8c0,.5,0,.9,0,1.4,0,65.9,53.6,119.6,119.5,119.9,65.9-.3,119.5-53.9,119.5-119.9s0-.9,0-1.4l32.4,26.8,35.8-12.7s0,0,0,0h0,0c-6.6,97.8-88.2,175.4-187.7,175.7Z"></path>
        <g class="st1">
          <path class="st0" d="M101.3,420.1l18.7-27.5,6.1,4.1c2.1,1.4,3.5,2.8,4.3,4.2.8,1.4.9,2.9.6,4.5s-1.3,3.4-2.7,5.5l-6.8,10c-1.4,2.1-2.8,3.6-4.1,4.5-1.4,1-2.8,1.4-4.4,1.2-1.6-.2-3.4-1-5.5-2.4l-6.2-4.2ZM109.5,419.6l.8.6c.8.6,1.5.8,2,.8.5,0,1-.3,1.5-.8.5-.5,1-1.1,1.5-1.9l8.1-12c.6-.8.9-1.5,1.2-2.1.2-.6.2-1.1,0-1.6-.2-.5-.7-1-1.5-1.5l-.8-.5-12.9,19Z"></path>
        </g>
        <g class="st1">
          <path class="st0" d="M122.2,433.4l14.8-29.7,11.7,5.8-2.2,4.5-6-3-3.7,7.4,4.5,2.3-2.3,4.6-4.5-2.3-4.4,8.9,6,3-2.2,4.4-11.8-5.9Z"></path>
        </g>
        <g class="st1">
          <path class="st0" d="M151.5,445.8l8.7-32.1,6.2,1.7-7.4,27.3,6.5,1.8-1.3,4.8-12.7-3.4Z"></path>
        </g>
        <g class="st1">
          <path class="st0" d="M169.3,450.3l9.8-32.2,7.3,1,1,33.6-5.9-.8v-7.1s-4.3-.6-4.3-.6l-1.9,6.8-6-.8ZM178.4,440l3.1.4.2-13-3.2,12.6Z"></path>
        </g>
        <g class="st1">
          <path class="st0" d="M214.2,452.7c-1.8.2-3.4,0-4.6-.7-1.3-.6-2.3-1.7-3-3.2-.8-1.5-1.3-3.5-1.5-5.9l5.4-1.4c.1,1.4.4,2.5.6,3.4.3.9.6,1.5,1,1.8.4.3.9.5,1.4.5.7,0,1.1-.4,1.2-.9.2-.5.2-1.1.2-1.7-.1-1.4-.5-2.5-1.1-3.4-.7-.9-1.5-1.8-2.6-2.6l-2.7-2.3c-1.2-1-2.2-2.1-3.1-3.4-.9-1.3-1.4-2.9-1.5-4.9-.2-2.8.3-5,1.6-6.6,1.3-1.6,3.3-2.5,5.8-2.7,1.6-.1,2.8,0,3.8.6s1.8,1.2,2.3,2.2c.6.9,1,1.9,1.3,3,.3,1.1.5,2.1.6,3.1l-5.5,1.2c-.1-1-.2-1.8-.4-2.5-.1-.7-.4-1.3-.7-1.6-.3-.4-.7-.5-1.3-.5-.6,0-1,.4-1.2,1-.2.6-.3,1.2-.3,1.8.1,1.2.4,2.2,1,2.9s1.3,1.5,2.2,2.3l2.6,2.2c1.4,1.1,2.6,2.4,3.6,3.9,1,1.5,1.6,3.4,1.8,5.7.1,1.6,0,3-.6,4.3-.5,1.3-1.3,2.4-2.4,3.2-1.1.8-2.4,1.3-3.9,1.4Z"></path>
        </g>
        <g class="st1">
          <path class="st0" d="M227,450.8l-2-33.6,7.2-1.6,12.7,31.2-5.8,1.3-2.5-6.6-4.2.9.6,7.1-5.9,1.3ZM231.9,438l3-.7-4.4-12.3,1.4,13Z"></path>
        </g>
        <g class="st1">
          <path class="st0" d="M251.5,444.6l-12.2-30.9,7.5-2.9c1.8-.7,3.5-1.1,5-1.2,1.5,0,2.9.3,4.1,1.2,1.2.9,2.2,2.4,3.1,4.6.5,1.3.9,2.4,1.1,3.5.2,1.1.2,2,0,3-.2.9-.6,1.8-1.3,2.6l9.6,13.5-6.2,2.4-8.4-12.7-1.7.7,5.5,13.8-6,2.4ZM250.5,424.5l1.7-.7c.8-.3,1.4-.8,1.8-1.3.3-.5.5-1.2.4-1.9,0-.7-.3-1.5-.6-2.5-.5-1.3-1.1-2.3-1.9-2.8-.7-.6-1.6-.6-2.8-.2l-1.9.8,3.4,8.5Z"></path>
        </g>
        <g class="st1">
          <path class="st0" d="M274.4,434.7l-15.8-29.2,5.7-3.1,15.8,29.2-5.7,3.1Z"></path>
        </g>
        <g class="st1">
          <path class="st0" d="M287,427.6l-19-27.2,3.7-2.6,14,9.7-9.1-13.1,4.4-3,19,27.2-3.6,2.5-14.7-10.7,9.8,14.1-4.5,3.1Z"></path>
        </g>
        <g class="st1">
          <path class="st0" d="M306.1,413.5l-22.3-24.6,9.7-8.8,3.4,3.7-4.9,4.5,5.5,6.1,3.8-3.4,3.4,3.8-3.8,3.4,6.7,7.3,5-4.5,3.3,3.7-9.7,8.8Z"></path>
        </g>
        <g>
          <g class="st1">
            <path class="st0" d="M17.2,250.4v-4.7c2.3-1.9,4.3-3.5,5.8-4.8,1.5-1.3,2.6-2.5,3.3-3.6.7-1,1.1-2.1,1.1-3.1,0-1-.3-1.8-.9-2.3-.6-.5-1.4-.7-2.3-.7-.5,0-1,0-1.5.2-.5.1-1.1.3-1.7.5l.6-.9-.6,3.5h-3.4s-.4-6.1-.4-6.1c1.4-.4,2.8-.7,4.1-.9,1.3-.2,2.6-.3,3.7-.3,1.6,0,3,.2,4.3.6,1.2.4,2.2,1.1,2.9,2,.7.9,1.1,2.2,1.1,3.7,0,1.6-.4,3.1-1.2,4.6s-1.9,2.8-3.3,4.2c-1.4,1.4-3.2,2.9-5.2,4.4v-.6s10.1,0,10.1,0v4.4s-16.5,0-16.5,0Z"></path>
          </g>
          <g class="st1">
            <path class="st0" d="M53.6,231.4l-8.1,19h-6.2s8.5-19.3,8.5-19.3l.7.8h-9s1.2-.8,1.2-.8l-.8,3.9h-3.4s0-7.5,0-7.5h17.1c0,0,0,3.9,0,3.9Z"></path>
          </g>
        </g>
        <g class="st1">
          <path class="st0" d="M60.4,239.8c-.9,0-1.8-.2-2.5-.6-.7-.4-1.3-1-1.7-1.7-.4-.8-.6-1.7-.6-2.8,0-1.1.2-2.1.6-2.9.4-.8,1-1.5,1.8-1.9.8-.4,1.7-.7,2.7-.7,1,0,1.8.2,2.5.6.6.4,1.1.9,1.4,1.6.3.7.4,1.5.4,2.3,0,.3,0,.5,0,.7,0,.2,0,.5-.1.8h-6.7s0-1.7,0-1.7h4s-.5.3-.5.3c0-.5,0-.9,0-1.2,0-.3-.2-.6-.4-.8-.2-.2-.5-.3-.8-.3-.4,0-.7.1-1,.4-.2.3-.4.6-.5,1,0,.4-.1.9-.1,1.3,0,.6,0,1.2.2,1.6.1.5.4.9.7,1.2.3.3.8.4,1.3.4.4,0,.8,0,1.3-.2.5-.1,1-.4,1.5-.6l1,1.7c-.7.5-1.5.9-2.3,1.2-.8.2-1.6.4-2.3.4Z"></path>
        </g>
        <rect class="st0" x="2.4" y="239.5" width="10.2" height="3.9" transform="translate(-.8 0) rotate(-.2)"></rect>
        <rect class="st0" x="68.6" y="239.3" width="10.2" height="3.9" transform="translate(-.8 .2) rotate(-.2)"></rect>
        <g>
          <g class="st1">
            <path class="st0" d="M318.1,249.7v-4.7c2.3-1.9,4.3-3.5,5.8-4.8,1.5-1.3,2.6-2.5,3.3-3.6.7-1,1.1-2.1,1.1-3.1,0-1-.3-1.8-.9-2.3s-1.4-.7-2.3-.7c-.5,0-1,0-1.5.2-.5.1-1.1.3-1.7.5l.6-.9-.6,3.5h-3.4s-.4-6.1-.4-6.1c1.4-.4,2.8-.7,4.1-.9,1.3-.2,2.6-.3,3.7-.3,1.6,0,3,.2,4.3.6,1.2.4,2.2,1.1,2.9,2s1.1,2.2,1.1,3.7c0,1.6-.4,3.1-1.2,4.6s-1.9,2.8-3.3,4.2c-1.4,1.4-3.2,2.9-5.2,4.4v-.6s10.1,0,10.1,0v4.4s-16.5,0-16.5,0Z"></path>
          </g>
          <g class="st1">
            <path class="st0" d="M347.4,250.1c-2.1,0-3.9-.4-5.2-1.3-1.3-.9-2.3-2.2-2.9-3.9-.6-1.7-.9-3.9-.9-6.4s.3-4.9.9-6.7c.6-1.8,1.6-3.1,3-4s3.2-1.4,5.4-1.4,4,.4,5.3,1.3,2.2,2.1,2.7,3.8c.5,1.7.8,3.8.8,6.4s-.3,4.9-.9,6.7c-.6,1.8-1.6,3.2-2.9,4.1s-3.1,1.4-5.3,1.4ZM347.5,245.9c.9,0,1.6-.3,2-.9s.8-1.4.9-2.6c.2-1.2.3-2.6.3-4.3,0-1.7,0-3.2-.2-4.3-.2-1.1-.5-1.9-.9-2.4-.5-.5-1.1-.8-2-.8s-1.6.3-2.1.9c-.5.6-.8,1.4-1,2.6-.2,1.1-.3,2.6-.3,4.3s0,3.1.2,4.2c.2,1.1.5,2,1,2.5.5.6,1.1.8,2,.8Z"></path>
          </g>
          <g class="st1">
            <path class="st0" d="M360.5,249.6v-4.7c2.4-1.9,4.3-3.4,5.8-4.8,1.5-1.3,2.6-2.5,3.3-3.6.7-1,1.1-2.1,1.1-3.1s-.3-1.8-.9-2.3c-.6-.5-1.4-.7-2.3-.7s-1,0-1.5.2c-.5.1-1.1.3-1.7.5l.6-.9-.6,3.5h-3.4l-.4-6.1c1.4-.4,2.8-.7,4.1-.9,1.3-.2,2.6-.3,3.7-.3s3,.2,4.3.6c1.2.4,2.2,1.1,2.9,2,.7.9,1,2.2,1,3.7s-.4,3.1-1.2,4.6c-.8,1.4-1.9,2.8-3.3,4.2-1.4,1.4-3.2,2.9-5.2,4.4v-.6h10.1v4.4h-16.5Z"></path>
          </g>
          <g class="st1">
            <path class="st0" d="M385.9,240.6l-.3-3.6c.9-.5,1.8-.8,2.7-1.1s2-.5,3-.5,2.5.3,3.5.8c1,.5,1.9,1.3,2.5,2.3.6,1,1,2.3,1,3.8s-.4,3.1-1.1,4.2c-.8,1.2-1.8,2.1-3.1,2.7-1.3.6-2.8.9-4.4.9s-3.1-.4-4.5-1-2.4-1.8-3.3-3.4c-.8-1.5-1.2-3.6-1.2-6.1s.5-5.1,1.5-7.1c1-2,2.4-3.5,4.1-4.5,1.8-1.1,3.8-1.6,6.1-1.6s2.7.2,4.2.5l-.4,4c-.6-.1-1.1-.2-1.6-.2-.5,0-1,0-1.4,0-1.6,0-2.9.3-3.9,1-1,.7-1.7,1.7-2.1,3-.4,1.3-.6,3-.6,5.1s.2,3.6.7,4.6c.5,1,1.3,1.5,2.5,1.5s1.6-.3,2.1-.8c.5-.6.8-1.4.8-2.5s-.1-1.3-.4-1.8c-.3-.5-.6-.8-1.1-1.1-.5-.2-1-.4-1.6-.4s-1.2.1-1.8.3c-.6.2-1.2.6-1.8,1Z"></path>
          </g>
        </g>
        <path class="st0" d="M295.1,209.9c0-.2,0-.4-.1-.5,0,.2,0,.3.1.5h0"></path>
        <g>
          <path class="st2" d="M262,221.6c0-.1,0-.2,0-.3,0-.1,0-.2,0-.3,0-.6,0-1.2.3-1.6-.2.8-.3,1.5-.3,2.3"></path>
          <path class="st0" d="M283.7,221.3c.5,3.9,1.9,8.6-.3,12.2-.9,1.6-2.5,2.6-4.1,3.4-1.5.7-2.3.5-2.8,2.1-1.7,5.6-10.5,3.2-8.8-2.4,1-3.1,2.5-5.5,5.5-6.9.5-.2,2.4-.9,2.4-1,.2-.4-.6-4.2-.7-4.9-.3-2.4.6-4.8,3.2-5.6,2.1-.6,5.2.7,5.6,3.2"></path>
          <path class="st0" d="M111.6,219.8c-.5,3.9-1.9,8.6.3,12.2.9,1.6,2.5,2.6,4.1,3.4,1.5.7,2.3.5,2.8,2.1,1.7,5.6,10.5,3.2,8.8-2.4-1-3.1-2.5-5.5-5.5-6.9-.5-.2-2.4-.9-2.4-1-.2-.4.6-4.2.7-4.9.3-2.4-.6-4.8-3.2-5.6-2.1-.6-5.2.7-5.6,3.2"></path>
          <path class="st3" d="M198,195.7c-.5,0-1-.1-1.5-.2v2.3c.3,0,.6,0,.9,0,.6,0,1.1,0,1.7,0h.4v-2.3c-.5,0-1,.1-1.5.2"></path>
          <path class="st0" d="M130.2,207.3c-.9,0-1.6-.4-2.1-1.1-.3-.4-.4-.9-.4-1.4,0-1.6,1.4-3.7,8.2-9.6,6.8-5.9,18.5-14.9,34.7-26.7,2.1-1.5,4-3.3,5.7-5.3l13.4-15.7c1.6-1.9,3.9-3,6.4-3.1.2,0,.4,0,.6,0,2.7,0,5.2,1.2,6.8,3.3,2.1,2.6,4.4,5.6,7.1,9l1.1,1.4c1,1.2,1.9,2.5,2.9,3.6,1.9,2.4,4.2,4.6,6.7,6.4,17.3,12.4,28.4,20.7,34.9,26.1,7.2,5.9,8.9,8.3,7.5,10.4-.5.8-1.2,1.1-2.1,1.1-1.8,0-4.4-1.4-8.8-3.6-10.7-5.5-30.6-15.7-55.2-15.8h-1.4c-25.4.3-45.9,11.2-57,17.1-4.4,2.4-7.1,3.8-8.8,3.8M195,148.5c-.1,0-.3,0-.4.1-.2,0-.3.1-.4.2-.1,0-.2.1-.3.2h0s0,0,0,0h0c0,0-.1.1-.2.2-.1,0-.2.1-.3.2-.1,0-.2.2-.3.3-.1.1-.2.2-.4.4l-13.3,15.7c-1.9,2.2-4,4.2-6.4,5.9-23.2,17-33.5,25.4-38,29.7.8-.4,1.5-.8,2.2-1.2,1.6-.9,3.9-2.1,6.4-3.3.4-.2.8-.4,1.1-.6.4-.2.9-.4,1.3-.6.5-.2,1-.5,1.5-.7,1.6-.8,3.2-1.5,4.7-2.2.5-.2,1.1-.5,1.7-.7.6-.2,1.1-.5,1.7-.7.6-.2,1.2-.5,1.8-.7.6-.2,1.2-.5,1.8-.7.9-.3,1.8-.7,2.8-1l.9-.3c.1,0,.3-.1.4-.1,1-.3,1.9-.6,3-1l.5-.2,2-.6c.7-.2,1.4-.4,2.1-.6.7-.2,1.4-.4,2.1-.5,1.2-.3,2.5-.6,3.9-.9.1,0,.3,0,.4,0,.3,0,.6-.1.9-.2h.1c.7-.2,1.5-.3,2.2-.4.6-.1,1.3-.2,1.9-.3l1.5-.2c1.1-.1,2.1-.3,3.2-.4.1,0,.2,0,.3,0,.4,0,.8,0,1.2-.1.4,0,.9,0,1.3-.1h1.1c.7-.1,1.4-.2,2.2-.2h.3c.8,0,1.6,0,2.4,0h1.4c25.6.1,46,10.6,57,16.2.7.4,1.4.7,2.2,1.1-8.3-7.4-29.4-22.5-37.7-28.5h-.1c-2.9-2.1-5.4-4.6-7.5-7.3-1.3-1.6-2.6-3.3-3.9-5-2.1-2.7-4.7-6.1-7-8.9-.9-1.1-2.3-1.8-3.7-1.8h-.5c-.1,0-.3,0-.4,0-.1,0-.3,0-.4,0h0s0,0,0,0Z"></path>
          <g>
            <path class="st0" d="M134.3,202.1c.2-.1.4-.2.7-.3-.2.1-.4.2-.7.3Z"></path>
            <path class="st0" d="M172.7,171.3c2.3-1.7,4.4-3.7,6.3-5.8l13.3-15.7c.1-.1.2-.3.4-.4.1-.1.2-.2.4-.3,0,0,.2-.1.3-.2,0,0,.1,0,.2-.1,0,0,.1,0,.1,0,.1,0,.2-.1.3-.2.1,0,.3-.1.4-.2.1,0,.3,0,.4-.1,0,0,0,0,0,0,.2,0,.3,0,.5-.1.2,0,.3,0,.5,0h0s0,0,0,0h0c-.2,0-.3,0-.5,0-.2,0-.3,0-.5.1-.1,0-.1,0,0,0-.1,0-.3,0-.4.1-.1,0-.3.1-.4.2-.1,0-.2.1-.3.2,0,0-.1,0-.1,0,0,0-.1,0-.2.1-.1,0-.2.1-.3.2-.1.1-.2.2-.4.3-.1.1-.3.3-.4.4l-13.3,15.7c-1.9,2.2-4,4.1-6.3,5.8-27.2,19.8-36.7,28.1-39.9,31.5h0s0,0,0,0c3.2-3.4,12.7-11.7,39.9-31.5Z"></path>
            <path class="st0" d="M256.1,194c-6.5-5.4-17.6-13.7-34.9-26.1-2.5-1.8-4.8-4-6.6-6.4-.9-1.2-1.9-2.4-2.8-3.6l-1.1-1.4c-2.1-2.7-4.8-6.1-7.1-9-1.7-2.1-4.3-3.4-7.1-3.4h0c-.2,0-.4,0-.6,0-2.6.1-4.9,1.2-6.6,3.2l-13.4,15.7c-1.6,1.9-3.5,3.7-5.6,5.2-16.2,11.8-27.8,20.8-34.7,26.7-6.9,6-8.3,8.2-8.3,9.9s.2,1.1.5,1.6c.6.9,1.4,1.3,2.4,1.3,1.8,0,4.4-1.4,9-3.8,11-5.9,31.5-16.8,56.8-17.1h1.4c24.5,0,44.3,10.3,55,15.7,4.5,2.3,7.1,3.7,9,3.7s1.9-.4,2.5-1.3c1.7-2.6-.9-5.5-7.5-10.9ZM263,204.4c-.4.7-1,1-1.8,1-1.7,0-4.3-1.3-8.6-3.6-10.7-5.5-30.6-15.7-55.3-15.8h-1.4c-25.5.3-46,11.2-57.2,17.2-4.4,2.4-7,3.7-8.6,3.7s-1.3-.3-1.8-.9c-.2-.3-.4-.7-.4-1.2,0-1.6,1.9-4,8.1-9.3,6.8-5.9,18.5-14.9,34.6-26.7,2.1-1.6,4.1-3.4,5.8-5.3l13.3-15.7c1.5-1.8,3.7-2.8,6.1-2.9.2,0,.4,0,.5,0h0c2.6,0,5,1.2,6.5,3.1,2.2,2.8,4.7,5.9,7,9,1.3,1.7,2.6,3.4,3.9,5,1.9,2.5,4.2,4.7,6.8,6.5,17.3,12.4,28.4,20.7,34.9,26,6.9,5.7,8.6,8,7.4,9.9Z"></path>
            <path class="st0" d="M254.1,199.2c-11-5.6-31.3-16.1-56.8-16.2h-1.4c.3,0,.7,0,1,0h.4c25.5.1,45.9,10.6,56.8,16.2,1.6.8,3.3,1.7,4.6,2.3,0,0,0,0,0,0-1.3-.6-2.9-1.4-4.5-2.3Z"></path>
          </g>
          <path class="st0" d="M272.1,238.3c0-1.3-.3-2.6-.7-3.9-.8-2.5-2.3-4.9-4.2-6.7-6.6-6-14.4-10-22.5-12.9-2-.7-4-1.4-6.1-1.9-1-.3-2-.6-3.1-.9l-3.1-.7-1.6-.4-1.6-.3-3.1-.6c-2.1-.4-4.2-.6-6.2-.9-7.2-.9-14.5-1.3-21.8-1.3-7.2,0-14.5.4-21.8,1.3-2.1.3-4.2.6-6.2.9l-3.1.6-1.6.3-1.6.4-3.1.7c-1,.2-2.1.6-3.1.9-2.1.6-4.1,1.3-6.1,1.9-8,2.9-15.8,6.9-22.5,12.9-1.9,1.8-3.4,4.1-4.2,6.7-.4,1.3-.6,2.6-.7,3.9,0,.3,0,.6,0,1,0,.3,0,.7,0,.9v1.6c.6,4.3,1.6,8.4,2.7,12.5,1.1,4,2.4,8,3.7,11.9l2,5.9c.3,1,.7,2,1.1,3,.4,1,.9,2,1.4,3,1,2,2.3,3.9,3.7,5.7,1.4,1.8,3,3.5,4.8,5,3.2,2.8,6.7,5.5,11,7.4,1.1.5,2.2.9,3.4,1.3.6.2,1.2.3,1.8.5h.5c0,.1.7.2.7.2.4,0,.9.1,1.3.1,1.7,0,3.2-.2,4.6-.7,1.4-.4,2.6-1,3.7-1.6,2.2-1.2,4.1-2.7,5.7-4.2,1.7-1.5,3.2-3.1,4.6-4.7,2.8-3.2,5.3-6.7,7.7-10,1.2-1.6,2.4-3.4,3.6-4.8,1-1.2,2.4-2.2,4.1-2.7.4-.1.8-.2,1.2-.3.2,0,.4,0,.6-.1h.1c.2,0,.4,0,.6.1.4,0,.8.2,1.2.3,1.6.5,3,1.5,4.1,2.7,1.2,1.4,2.4,3.1,3.6,4.8,2.5,3.3,4.9,6.8,7.8,10,1.4,1.6,2.9,3.2,4.6,4.7,1.7,1.5,3.5,2.9,5.7,4.2,1.1.6,2.3,1.1,3.7,1.6,1.4.4,2.9.7,4.6.7.4,0,.9,0,1.3-.1h.7c0,0,.5-.2.5-.2.6-.1,1.2-.3,1.8-.5,1.2-.4,2.3-.8,3.3-1.3,4.2-1.9,7.7-4.6,11-7.4,1.7-1.5,3.4-3.2,4.8-5,1.4-1.8,2.6-3.7,3.7-5.7.5-1,1-2,1.4-3s.8-2.1,1.1-3l2-5.9c1.3-3.9,2.6-7.9,3.7-11.9,1.1-4,2-8.2,2.5-12.5v-1.6c.2-.2.2-.6.2-.9,0-.3,0-.6,0-1M264.4,253.2c-.6,3.9-1.5,7.9-2.7,11.7-.6,1.9-1.2,3.8-2,5.7-.4,1-.7,1.8-1.1,2.7-.4.8-.9,1.6-1.4,2.4-1.1,1.5-2.4,2.9-3.8,4-1.5,1.1-3,2-4.7,2.8-3.6,1.7-7.2,3.1-10.5,4.3-.8.3-1.7.5-2.4.7-.4.1-.8.2-1.2.3h-.3c0,0,0,0-.1,0,0,0-.1,0-.2,0-.3,0-.8,0-1.4-.2-.6-.2-1.3-.4-2-.7-1.4-.6-3-1.5-4.5-2.5-1.5-1-3.1-2.2-4.6-3.4-3.1-2.4-4.3-6.2-7.2-9l-4.8-4.8c-1.8-1.7-4.1-2.5-6.4-3.1-.6-.2-1.2-.3-1.8-.4-.3,0-.6,0-.9-.1-.2,0-.3,0-.5,0s-.3,0-.5,0c-.3,0-1.5-.4-1.8-.3-.6.1-1.9,0-2.5.2-2.3.6-4.4,1.1-6.3,2.8l-4.8,4.8c-2.9,2.8-5.7,7.6-8.7,10-1.6,1.2-3.1,2.3-4.6,3.4-1.5,1-3.1,1.9-4.5,2.5-.7.3-1.4.6-2,.7-.6.1-1.1.2-1.4.2-.1,0-.1,0-.2,0h-.4c-.4-.1-.8-.2-1.2-.3-.8-.2-1.6-.4-2.4-.7-3.4-1.1-7-2.6-10.5-4.3-1.7-.8-3.2-1.6-4.7-2.8-1.4-1.1-2.8-2.5-3.8-4-.5-.8-1-1.6-1.4-2.4s-.8-1.7-1.1-2.7c-.7-1.9-1.4-3.8-2-5.7-1.2-3.9-2.1-7.8-2.7-11.7-.6-3.9-1-7.9-1-11.8v-1.4c0-.3,0-.4,0-.6,0-.2,0-.4,0-.6.1-.7.3-1.4.6-2.1.5-1.3,1.4-2.5,2.5-3.4,2.8-2.4,6-4.5,9.4-6.2,3.4-1.8,7-3.2,10.7-4.4,1.9-.6,3.7-1.2,5.6-1.7.9-.2,1.9-.5,2.9-.7l2.9-.6,1.4-.3,1.5-.3,2.9-.5c1.9-.4,3.9-.6,5.9-.8,6.8-.8,13.8-1.1,20.7-1.1s13.9.3,20.7,1.1c2,.3,3.9.5,5.9.8l2.9.5,1.5.3,1.4.3,2.9.6c1,.2,1.9.5,2.9.7,1.9.5,3.8,1.1,5.6,1.7,3.7,1.3,7.3,2.7,10.7,4.4,3.4,1.8,6.6,3.8,9.4,6.2,1.1.9,2,2.1,2.5,3.4.3.7.5,1.4.6,2.1,0,.2,0,.4,0,.6,0,.2,0,.4,0,.6v1.4c0,3.9-.3,7.8-1,11.8"></path>
          <path class="st0" d="M198.1,265h0s0,0,0,0h0Z"></path>
          <path class="st0" d="M244.9,297.2h0c-.4-2.2-1.7-4.2-3.5-5.8-.9-.8-1.9-1.5-3-2l-2.6-1.3c-1.7-.9-3.3-1.8-5-2.7s-3.2-1.9-4.7-3c-1.5-1-2.9-2.2-4.2-3.4-1.3-1.2-2.5-2.5-3.5-3.9-.3-.3-.5-.7-.7-1l-.7-1.1-.7-1.2c-.2-.4-.5-.8-.8-1.2-.5-.8-1-1.6-1.7-2.3-.6-.8-1.2-1.5-1.9-2.2-1.4-1.4-3-2.8-4.9-3.9-.5-.3-1-.6-1.5-.8-.5-.2-1-.5-1.6-.7-1.1-.4-2.2-.8-3.4-1-.3,0-.6-.1-.9-.1-.3,0-.6,0-1.1-.1h-.6c-.5,0-.8,0-1.1.1-.3,0-.6,0-.9.1-1.2.2-2.4.6-3.4,1-.5.2-1.1.5-1.6.7-.5.2-1,.5-1.5.8-1.9,1.1-3.5,2.5-4.9,3.9-.7.7-1.4,1.5-1.9,2.2-.6.8-1.1,1.5-1.7,2.3-.3.4-.5.8-.8,1.2l-.7,1.2-.7,1.1c-.2.3-.4.7-.7,1-1,1.4-2.2,2.7-3.5,3.9-1.3,1.2-2.7,2.3-4.2,3.4-1.5,1.1-3.1,2.1-4.7,3-1.6.9-3.3,1.8-5,2.7l-2.6,1.3c-1.1.5-2.1,1.2-3,2-1.8,1.6-3.1,3.6-3.5,5.8-.2,1.1-.1,3.4,0,2.3,0-.9,6.5-.7,6.4.3,0,.6-.1-1.2,0-1.7.2-1.1.7-2.3,1.7-3.3.5-.5,1-.9,1.6-1.3l2.5-1.5c1.7-1.1,3.3-2.2,4.8-3.3,3.1-2.3,6.1-4.8,8.8-7.5,1.3-1.4,2.6-2.8,3.7-4.4.3-.4.5-.8.8-1.2.2-.4.5-.8.7-1.2.5-.7.9-1.5,1.4-2.1.5-.7,1.1-1.3,1.7-1.9.6-.6,1.3-1.1,2-1.7,1.4-1,3-1.8,4.6-2.4,1.6-.6,3.2-1,4.8-1.2.2,0,.4,0,.6,0,.2,0,.3,0,.4,0h0s0,0,0,0c0,0,0,0,0,0h0s0,0,0,0h.2,0c0,0,.3,0,.4,0,.2,0,.4,0,.6,0,1.6.2,3.2.6,4.8,1.2,1.6.6,3.1,1.4,4.5,2.4.7.5,1.4,1,2,1.7.7.6,1.2,1.2,1.7,1.9.6.6,1,1.4,1.4,2.1.2.3.5.8.7,1.2.2.4.5.8.8,1.2,1.1,1.6,2.3,3,3.7,4.4,2.7,2.7,5.7,5.2,8.8,7.5,1.6,1.2,3.2,2.3,4.8,3.3l2.5,1.5c.6.4,1.2.8,1.6,1.3,1,1,1.5,2.1,1.7,3.3.1.6,0,1.2,0,1.7h0c-.1.6,0,1.3-.7,1.9-1.5,1.3,6-2.6,7.2-1.1.7.9.2-2.2,0-3.3Z"></path>
          <path class="st0" d="M198.1,280.9h0s0,0,0,0h0Z"></path>
          <path class="st0" d="M233.5,305.2h0c-.3-1.7-1.3-3.2-2.7-4.4-.7-.6-1.4-1.1-2.2-1.5l-2-1c-1.3-.7-2.5-1.3-3.8-2-1.2-.7-2.4-1.5-3.5-2.3-1.1-.8-2.2-1.7-3.2-2.6-1-.9-1.9-1.9-2.6-2.9-.2-.3-.4-.5-.5-.8l-.5-.8-.6-.9c-.2-.3-.4-.6-.6-.9-.4-.6-.8-1.2-1.3-1.8-.4-.6-1-1.1-1.5-1.7-1.1-1.1-2.3-2.1-3.7-3-.4-.2-.7-.4-1.1-.6-.4-.2-.8-.4-1.2-.5-.8-.3-1.7-.6-2.6-.8-.2,0-.5,0-.7-.1-.2,0-.5,0-.8,0h-.5c-.3,0-.6,0-.8,0-.2,0-.5,0-.7.1-.9.2-1.8.4-2.6.8-.4.1-.8.3-1.2.5-.4.2-.8.4-1.1.6-1.4.9-2.7,1.9-3.7,3-.5.6-1,1.1-1.5,1.7-.5.6-.9,1.2-1.3,1.8-.2.3-.4.6-.6.9l-.5.9-.5.8c-.2.3-.3.5-.5.8-.8,1-1.6,2-2.7,2.9-1,.9-2,1.8-3.2,2.6-1.1.8-2.3,1.6-3.6,2.3-1.2.7-2.5,1.4-3.8,2l-2,1c-.8.4-1.6.9-2.2,1.5-1.3,1.2-2.1,1.7-2.5,3.3-.2.8,7.3,9.2,5.2,4.4-.3-.7-.4-1-.5-1.4,0-.4,0-.9,0-1.3.1-.9.5-1.7,1.3-2.5.4-.4.8-.7,1.2-1l1.9-1.2c1.2-.8,2.5-1.6,3.7-2.5,2.4-1.8,4.6-3.6,6.7-5.7,1-1,2-2.1,2.8-3.3.2-.3.4-.6.6-.9.2-.3.4-.6.5-.9.4-.5.7-1.1,1.1-1.6.4-.5.8-1,1.3-1.4.5-.5,1-.9,1.5-1.2,1.1-.8,2.2-1.4,3.5-1.8,1.2-.5,2.5-.8,3.6-.9.1,0,.3,0,.4,0,.1,0,.2,0,.3,0h0s0,0,0,0c0,0,0,0,0,0h0s0,0,0,0h.1,0s.2,0,.3,0c.1,0,.3,0,.4,0,1.2.1,2.4.5,3.6.9,1.2.5,2.4,1.1,3.5,1.8.5.4,1,.8,1.5,1.2.5.4.9.9,1.3,1.4.4.5.7,1,1.1,1.6.2.2.4.6.5.9.2.3.4.6.6.9.8,1.2,1.8,2.3,2.8,3.3,2,2.1,4.3,4,6.7,5.7,1.2.9,2.4,1.7,3.7,2.5l1.9,1.2c.5.3.9.6,1.2,1,.7.7,1.3,1.5,1.8,2.3s.9,2.2.2,5.5c0,0,.9,3.4,3-1.4.2-.5,1-1.2,1.1-2,.1-.8.1-1.7,0-2.5Z"></path>
          <g>
            <polygon class="st0" points="162.5 282.6 162.5 282.6 162.5 282.6 162.5 282.6"></polygon>
            <path class="st0" d="M258,238.4c-5.2-4.7-21.6-15.7-59.8-15.7s-54.5,11-59.8,15.7c-.4.3-.5.8-.5,1.3.2,7.5,2.6,17.9,6.8,29.2,1.2,3.2,3.3,5.9,6.3,7.9,4.5,3,8.6,5.1,11.5,5.8,2.2-.6,6.9-4,17-15.7,1.7-1.9,2.8-3.2,3.8-4.2,6.2-5.9,13.5-6.2,14.9-6.2s8.7.3,14.9,6.2c1,1,2.1,2.2,3.8,4.2,10.1,11.7,14.9,15.1,17,15.7,2.9-.7,7-2.8,11.5-5.8,2.9-2,5.1-4.7,6.3-7.9,4.2-11.4,6.6-21.8,6.8-29.2,0-.5-.2-.9-.5-1.3ZM182.4,260c-.3.3-.6.5-.9.8-1.1,1.1-2.3,2.4-4,4.4-9.4,10.9-13.6,13.9-15.2,14.7-1.6-.5-3.5-1.4-5.7-2.7h0v-45.8c6.4-2.3,14.8-4.3,25.8-5.3v34ZM199.6,253.9c-.6,0-1.1,0-1.3,0-1.1,0-5.1.2-9.8,2.2v-30.6c3.1-.2,6.4-.3,9.8-.3h0c.5,0,.9,0,1.3,0v28.6ZM243.3,275c-3.5,2.3-6.8,4-9.1,4.8-1.6-.8-5.7-3.8-15.2-14.7-1.7-2-2.9-3.3-4-4.4-.8-.8-1.6-1.4-2.4-2v-32.9c13.8,1.1,23.7,3.8,30.7,6.7h0s0,0,0,0c0,0,0,0,0,0v42.4Z"></path>
          </g>
          <path class="st0" d="M230.8,310.2l8.9-10.1-.6-.3c-1.2.6-2.2,1.4-3.2,2.3-1.2,1.1-2.3,2.2-3.3,3.5-2,2.5-3.6,5.2-5,8-1.3,2.8-2,2.7-.5,5.2-.3,1.5.6.4.6.4l3-9h0Z"></path>
          <path class="st0" d="M246.1,324.6c-.2.4-.2.8,0,.9.2,0,.6-.3.8-.7.2-.4.2-.8,0-.9-.2,0-.6.3-.8.7"></path>
          <path class="st0" d="M246.2,327.6c-.2.4-.2.8,0,.9.2,0,.6-.3.8-.7.2-.4.2-.8,0-.9-.2,0-.6.3-.8.7"></path>
          <path class="st0" d="M247.4,322.7c.2,0,.6-.3.8-.7.2-.4.2-.8,0-.9-.2,0-.6.3-.8.7-.2.4-.2.8,0,.9"></path>
          <path class="st0" d="M248.3,324.2c-.2,0-.6.3-.8.7-.2.4-.2.8,0,.9.2,0,.6-.3.8-.7.2-.4.2-.8,0-.9"></path>
          <path class="st0" d="M248.4,327.3c-.2,0-.6.3-.8.7-.2.4-.2.8,0,.9.2,0,.6-.3.8-.7.2-.4.2-.8,0-.9"></path>
          <path class="st0" d="M249.6,321.5c-.2,0-.6.3-.8.7-.2.4-.2.8,0,.9.2,0,.6-.3.8-.7.2-.4.2-.8,0-.9"></path>
          <path class="st0" d="M248.9,326.1c.2,0,.6-.3.8-.7.2-.4.2-.8,0-.9-.2,0-.6.3-.8.7-.2.4-.2.8,0,.9"></path>
          <path class="st0" d="M250.1,320.3c.2,0,.6-.3.8-.7.2-.4.2-.8,0-.9-.2,0-.6.3-.8.7-.2.4-.2.8,0,.9"></path>
          <path class="st0" d="M251,322.7c.2-.4.2-.8,0-.9-.2,0-.6.3-.8.7-.2.4-.2.8,0,.9.2,0,.6-.3.8-.7"></path>
          <path class="st0" d="M251.5,319.8c-.2.4-.2.8,0,.9.2,0,.6-.3.8-.7.2-.4.2-.8,0-.9-.2,0-.6.3-.8.7"></path>
          <path class="st0" d="M252.8,325.5c1.8-3.8,2.9-7.5,3.1-10.2-.5,2.2-1.4,4.7-2.6,7.3-.7,1.5-1.5,3-2.3,4.3,1.7-3.6,2.6-7,2.9-9.5-.4,1.5-.9,3.2-1.6,4.9-.2.1-.4.4-.5.6-.2.4-.2.7-.1.8,0,.2-.1.3-.2.5-.1.3-.2.5-.4.8-.2,0-.4.3-.6.7-.1.3-.2.6-.1.7-1.4,2.6-3,4.8-4.5,6.2-.4.4-.9.7-1.4.8-.4,0-.8,0-1.1-.1-1-.5-1.4-2-1.2-4.3-.9,3.7-.7,6.5.7,7.2.2.1.4.1.7.1.4,0,.7,0,1.1-.3.1,0,.2-.1.4-.2,0,0,0,0,0,0,.1,0,.2-.1.4-.2,0,0,0,0,0,0,.3-.2.5-.4.8-.6,0,0,0,0,0,0,.1-.1.3-.2.4-.4,0,0,0,0,0,0,.3-.3.6-.6.9-.9,0,0,0,0,0,0,.4-.5.9-1,1.3-1.6,0,0,0,0,0,0,.5-.6.9-1.3,1.4-2h0c.5-.7.9-1.5,1.3-2.3h0c.4-.7.8-1.5,1.1-2.2"></path>
          <path class="st0" d="M244.2,322.7c3.9-6.6,8.8-11,11-9.7.4.2.6.6.8,1.1,0-1.6-.4-2.7-1.2-3.1-2.2-1.1-6.7,3.7-10,10.7-.2.4-.3.7-.5,1.1,0,0,0,0,0,0"></path>
          <path class="st0" d="M257.8,310.5c.3.8.4,1.6.5,2.5,0,1.6-.1,3.2-.4,4.7-.6,3-1.8,5.9-3.1,8.7-1.4,2.8-3,5.4-5,7.7-1,1.2-2.1,2.3-3.4,3.2-.6.4-1.3.8-2.1,1.1-.8.2-1.6.3-2.4,0-.8-.4-1.3-1.1-1.6-1.9-.3-.8-.4-1.5-.5-2.3-.1-1.6,0-3.1.3-4.6.5-3,1.5-6,2.8-8.8,1.3-2.8,2.8-5.5,4.7-7.9,1-1.2,2.1-2.4,3.4-3.3.6-.5,1.4-.9,2.2-1.2.8-.3,1.9-.4,2.8,0,1,.5,1.5,1.4,1.8,2.2M251.8,310.8c-1.1.8-2.2,1.9-3.2,3-1.9,2.2-3.5,4.8-4.9,7.5-1.3,2.7-2.4,5.5-3.1,8.4-.3,1.5-.5,3-.4,4.4,0,.7.2,1.5.4,2.1.2.7.7,1.3,1.3,1.5.6.3,1.3.2,2,0,.7-.2,1.3-.6,1.9-1,1.2-.9,2.2-2,3.2-3.1,1.9-2.3,3.4-5,4.6-7.7,1.2-2.7,2.2-5.6,2.7-8.5.3-1.4.4-2.9.3-4.3,0-.7-.2-1.4-.4-2-.2-.6-.6-1-1-1.2-.4-.2-1-.2-1.6,0-.6.2-1.2.5-1.8,1"></path>
          <path class="st0" d="M259.8,310.4c-.2-.9-.4-1.8-.9-2.6-.4-.8-1-1.4-1.8-1.8-.8-.4-1.7-.4-2.6-.3-.9.2-1.8.5-2.6,1-1.6.9-3.1,2.2-4.4,3.6-2.6,2.9-4.7,6.2-6.3,9.7-1.6,3.5-2.8,7.3-3.1,11.1-.2,1.9-.2,3.8.2,5.6.3,1.8,1.1,3.4,2.4,4,1.3.6,3.1.2,4.6-.6,1.6-.9,3.1-2.1,4.4-3.5,2.6-2.7,4.8-6,6.5-9.5,1.7-3.5,3-7.2,3.6-11,.3-1.9.3-3.8,0-5.7M251.2,338c-1.4,1.5-2.9,2.9-4.8,3.9-.9.5-2,1-3.1,1.2-.6,0-1.2.1-1.8,0s-1.2-.2-1.8-.5c-.3-.1-3.9-2.4-6.4-3.5l-5.5-20.8,3-8.1,8.9-10.1-.6-.3c.3-.2.6-.3.9-.5.8-.4,1.6-.6,2.4-.8.9-.1,1.8-.2,2.7,0,.2,0,.4.1.7.2h.3c0,.1.2.3.2.3l1,.5,2,1c2.6,1.4,8,4.2,8.1,4.2,1,.5,1.8,1.3,2.4,2.2.5.9.9,1.9,1,3,.4,2,.4,4.1.1,6.1-.5,4-1.7,7.9-3.3,11.6-1.7,3.6-3.8,7.1-6.6,10.2M252.8,304.1c-1.4-.6-2.8-1.2-4.2-1.8l-2.1-.9-1-.5h-.3c0-.1-.2-.2-.2-.2-.1,0-.3,0-.4-.1-1.1-.2-2.4.1-3.6.8-2.4,1.3-4.5,3.5-6.3,5.8-1.8,2.3-3.3,4.9-4.5,7.5-1.2,2.7-1.2,2.7-1.9,5.6-.3,1.4.5,3.4,1.5.4.5-1.5,1.1-2.9,1.7-4.3,0,0,0,0,0,0,2.1-4.1,2.4-4.3,4-6.5.7-1,1.6-1.9,2.6-3s.5-.5.8-.8c.3-.2.5-.5.8-.7-2,2.3-3.6,4.9-5,7.5-.7,1.3-1.3,2.7-1.9,4.1-.6,1.4-1.1,2.8-1.5,4.2-.4,1.4-.8,2.9-1,4.3-.3,1.5,1.6,8.8,1.3,10.6l.8.4c-.2-.5-.3-1-.4-1.5-.3-2.1-.2-4.2.1-6.2.4-2,.9-3.9,1.6-5.8.4-.9.8-1.9,1.2-2.7.4-.7.7-1.5,1.1-2.2,0-.2.2-.3.3-.5,0,0,0,.1,0,.1-.7,1.8-1.2,3.6-1.7,5.5-.5,1.9-.8,3.8-1,5.7-.2,1.9-.1,3.8.2,5.6.3,1.4.8,2.6,1.7,3.5.3.1.5.3.8.4-.2-.5-.3-1-.4-1.5-.4-2.1-.2-4.2,0-6.2.3-2,.8-4,1.5-5.9.6-1.9,1.4-3.6,2.2-5.4,0,0,0-.1,0-.2,1.7-3.4,3.7-6.6,6.3-9.4.1-.2.3-.4.5-.5,1.4-1.5,2.9-2.8,4.8-3.8l1.5-.8c.3-.2.3-.6,0-.7"></path>
          <path class="st0" d="M167.4,309l-8.9-10.1.6-.3c1.2.6,2.2,1.4,3.2,2.3,1.2,1.1,2.3,2.2,3.3,3.5,2,2.5,3.6,5.2,5,8,1.3,2.8.9,2.1,1.6,5.2.3,1.5-1.8,1.6-1.8,1.6l-3-10.1h0Z"></path>
          <path class="st0" d="M152,323.4c.2.4.2.8,0,.9-.2,0-.6-.3-.8-.7-.2-.4-.2-.8,0-.9.2,0,.6.3.8.7"></path>
          <path class="st0" d="M151.9,326.5c.2.4.2.8,0,.9-.2,0-.6-.3-.8-.7-.2-.4-.2-.8,0-.9.2,0,.6.3.8.7"></path>
          <path class="st0" d="M150.7,321.6c-.2,0-.6-.3-.8-.7-.2-.4-.2-.8,0-.9.2,0,.6.3.8.7.2.4.2.8,0,.9"></path>
          <path class="st0" d="M149.9,323.1c.2,0,.6.3.8.7.2.4.2.8,0,.9-.2,0-.6-.3-.8-.7-.2-.4-.2-.8,0-.9"></path>
          <path class="st0" d="M149.7,326.1c.2,0,.6.3.8.7.2.4.2.8,0,.9-.2,0-.6-.3-.8-.7-.2-.4-.2-.8,0-.9"></path>
          <path class="st0" d="M148.6,320.3c.2,0,.6.3.8.7.2.4.2.8,0,.9-.2,0-.6-.3-.8-.7-.2-.4-.2-.8,0-.9"></path>
          <path class="st0" d="M149.2,325c-.2,0-.6-.3-.8-.7-.2-.4-.2-.8,0-.9.2,0,.6.3.8.7.2.4.2.8,0,.9"></path>
          <path class="st0" d="M148,319.2c-.2,0-.6-.3-.8-.7-.2-.4-.2-.8,0-.9.2,0,.6.3.8.7.2.4.2.8,0,.9"></path>
          <path class="st0" d="M147.1,321.6c-.2-.4-.2-.8,0-.9.2,0,.6.3.8.7.2.4.2.8,0,.9-.2,0-.6-.3-.8-.7"></path>
          <path class="st0" d="M146.6,318.6c.2.4.2.8,0,.9-.2,0-.6-.3-.8-.7-.2-.4-.2-.8,0-.9.2,0,.6.3.8.7"></path>
          <path class="st0" d="M145.4,324.3c-1.8-3.8-2.9-7.5-3.1-10.2.5,2.2,1.4,4.7,2.6,7.3.7,1.5,1.5,3,2.3,4.3-1.7-3.6-2.6-7-2.9-9.5.4,1.5.9,3.2,1.6,4.9.2.1.4.4.5.6.2.4.2.7.1.8,0,.2.1.3.2.5.1.3.2.5.4.8.2,0,.4.3.6.7.1.3.2.6.1.7,1.4,2.6,3,4.8,4.5,6.2.4.4.9.7,1.4.8.4,0,.8,0,1.1-.1,1-.5,1.4-2,1.2-4.3.9,3.7.7,6.5-.7,7.2-.2.1-.4.1-.7.1-.4,0-.7,0-1.1-.3-.1,0-.2-.1-.4-.2,0,0,0,0,0,0-.1,0-.2-.1-.4-.2,0,0,0,0,0,0-.3-.2-.5-.4-.8-.6,0,0,0,0,0,0-.1-.1-.3-.2-.4-.4,0,0,0,0,0,0-.3-.3-.6-.6-.9-.9,0,0,0,0,0,0-.4-.5-.9-1-1.3-1.6,0,0,0,0,0,0-.5-.6-.9-1.3-1.4-2h0c-.5-.7-.9-1.5-1.3-2.3h0c-.4-.7-.8-1.5-1.1-2.2"></path>
          <path class="st0" d="M154,321.5c-3.9-6.6-8.8-11-11-9.7-.4.2-.6.6-.8,1.1,0-1.6.4-2.7,1.2-3.1,2.2-1.1,6.7,3.7,10,10.7.2.4.3.7.5,1.1,0,0,0,0,0,0"></path>
          <path class="st0" d="M142.2,307.2c1-.5,2-.3,2.8,0,.8.3,1.6.7,2.2,1.2,1.3,1,2.4,2.1,3.4,3.3,1.9,2.5,3.4,5.1,4.7,7.9,1.3,2.8,2.2,5.7,2.8,8.8.3,1.5.4,3.1.3,4.6,0,.8-.2,1.6-.5,2.3-.3.7-.8,1.5-1.6,1.9-.8.4-1.7.3-2.4,0-.8-.3-1.5-.7-2.1-1.1-1.3-.9-2.4-2-3.4-3.2-2-2.3-3.6-5-5-7.7-1.4-2.8-2.5-5.6-3.1-8.7-.3-1.5-.5-3.1-.4-4.7,0-.8.2-1.6.5-2.5.3-.8.9-1.7,1.8-2.2M144.5,308.7c-.6-.2-1.2-.2-1.6,0-.4.2-.8.6-1,1.2-.2.6-.4,1.3-.4,2,0,1.4,0,2.9.3,4.3.5,2.9,1.5,5.8,2.7,8.5,1.2,2.7,2.7,5.4,4.6,7.7.9,1.2,2,2.2,3.2,3.1.6.4,1.2.8,1.9,1,.7.2,1.4.3,2,0,.6-.3,1-.9,1.3-1.5.2-.7.4-1.4.4-2.1,0-1.5-.1-3-.4-4.4-.6-2.9-1.7-5.7-3.1-8.4-1.3-2.7-2.9-5.2-4.9-7.5-1-1.1-2-2.2-3.2-3-.6-.4-1.2-.8-1.8-1"></path>
          <path class="st0" d="M145.3,303c-.3.1-.3.6,0,.7l1.5.8c1.8,1,3.4,2.3,4.7,3.8,2.8,2.9,5,6.3,6.8,9.9.9,1.8,1.7,3.6,2.3,5.6.6,1.9,1.2,3.9,1.5,5.9.3,2,.4,4.1,0,6.2,0,.5-.2,1-.4,1.5.3-.1.5-.3.8-.4.9-.8,1.4-2.1,1.7-3.5.4-1.8.4-3.7.2-5.6-.1-1.9-.5-3.8-1-5.7-.5-1.9-1.1-3.8-1.8-5.6.5.9,1,1.7,1.4,2.6.4.9.8,1.8,1.2,2.8.7,1.9,1.3,3.8,1.6,5.8.3,2,.5,4.1.1,6.2,0,.5-.2,1-.4,1.5l.8-.4c.5-.5,0-1.4.2-2.2.4-1.3.5-2.8.5-4.2s.8-2.7.5-4.2c-.2-1.5-.6-2.9-1-4.3-.4-1.4-.9-2.8-1.5-4.2s-1.2-2.8-1.9-4.1c-1.4-2.7-3-5.2-5-7.5,2.3,2,4.3,4.4,6,7,.8,1.3,1.6,2.6,2.3,4s1.2,2.8,1.7,4.3c1,2.9,2.5,2.6,2.1,1.2-.6-2.9-1.2-4.5-2.5-7.2-1.2-2.7-2.7-5.2-4.5-7.5-1.8-2.3-3.9-4.5-6.3-5.8-1.2-.6-2.5-1-3.6-.8-.1,0-.3,0-.4.1h-.2c0,0-.3.2-.3.2l-1.1.5-2.1.9c-1.4.6-2.8,1.2-4.2,1.8M138.4,314.9c.6,3.8,1.9,7.5,3.6,11,1.7,3.5,3.9,6.7,6.5,9.5,1.3,1.4,2.8,2.6,4.4,3.5,1.6.9,3.4,1.3,4.6.6,1.3-.6,2.1-2.2,2.4-4,.4-1.8.4-3.7.2-5.6-.4-3.8-1.5-7.5-3.1-11.1-1.6-3.5-3.7-6.9-6.3-9.7-1.3-1.4-2.8-2.7-4.4-3.6-.8-.5-1.7-.8-2.6-1-.9-.1-1.8,0-2.6.3-.8.4-1.4,1-1.8,1.8-.4.8-.7,1.7-.9,2.6-.3,1.9-.2,3.8,0,5.7M140.4,326.7c-1.6-3.7-2.9-7.5-3.3-11.6-.2-2-.3-4.1.1-6.1.2-1,.5-2,1.1-3,.5-.9,1.3-1.8,2.4-2.2.1,0,5.5-2.9,8.1-4.2l2-1,1-.5h.2c0-.1.3-.3.3-.3.2-.1.4-.2.7-.2.9-.3,1.9-.2,2.7,0,.9.2,1.7.4,2.4.8.3.1.6.3.9.5l-.6.3,8.9,10.1,3.2,9.5-5.9,20.1c-2.5,1.1-5.9,2.7-6.2,2.8-.6.3-1.2.4-1.8.5s-1.2,0-1.8,0c-1.1-.2-2.2-.6-3.1-1.2-1.9-1.1-3.4-2.4-4.8-3.9-2.8-3-4.9-6.5-6.6-10.2"></path>
          <path class="st0" d="M226.2,325.2c.5,2.5.6,6.2.3,10,.5-6.2-2.7-13.4-8-18.4-5.3-5-12.5-7.9-19.7-7.9-7.2,0-14.4,2.8-19.7,7.9-5.5,5.3-7.2,8.6-8,15.1-.3-3.8,0-5.3,1.1-8.9,1-3.1,2.6-4.9,5.4-7.8,2.7-2.9,6-5.2,9.7-6.8,3.7-1.6,7.6-2.4,11.6-2.4,4,0,8,.8,11.6,2.4,3.6,1.6,7,3.9,9.7,6.8,2.7,2.9,4.8,6.3,6.1,9.9"></path>
          <path class="st0" d="M233.5,333c-.4-3.1-1.2-6.2-2.2-9.1-1.8-4.5-4.5-8.6-7.9-12-4.4-4.5-10.1-7.7-16.2-9.3-1.1-.3-2.3-.5-3.5-.7-1.7-.3-3.4-.4-5.1-.4h-.1c-.8,0-1.6,0-2.4,0-1.4,0-2.7.2-4,.5-3.3.6-6.6,1.7-9.6,3.2-3.3,1.6-6.3,3.7-8.9,6.3-.3.3-.6.6-.9,1-.1.1-.2.2-.3.3,0,0,0,0-.1.1-.3.3-.5.6-.8.9-.3.4-.6.8-1,1.1,0,0-.1.1-.2.2-.3.3-.5.7-.8,1-.4.5-.7,1-1.1,1.6,0,0,0,.1-.1.2-.7,1-1.4,2-2,3.1-1.8,3.1-2.9,6.6-3.3,10.2-.2,2.2-.4,4.3-.4,5.4-.2,9.5,3.5,19.1,10.2,25.9,3.4,3.4,7.4,6.2,11.9,8.1,4.4,1.9,9.3,2.8,14.1,2.9l3.6-.2c1.2-.1,2.4-.4,3.6-.5,1.2-.2,2.3-.6,3.5-1,1.1-.4,2.2-.9,3.4-1.3,4.4-2,8.3-4.8,11.5-8.3,6.4-7,9.8-16.4,9.6-25.6,0-.6-.2-2-.4-3.6M228.4,348.9c-1.8,3.8-4.3,7.2-7.4,10-6.1,5.5-14.2,8.5-22.2,8.5-8.1,0-16.1-3.2-21.9-8.9-2.9-2.8-5.3-6.2-6.9-10-1.7-3.8-2.6-7.8-2.6-12-.2-8.2,2.9-16.6,8.8-22.7,2.9-3,6.4-5.5,10.3-7.2,3.9-1.7,8.1-2.6,12.4-2.6,4.3,0,8.5.8,12.5,2.4,4,1.6,7.6,4,10.6,7,3,3,5.4,6.7,7,10.6,1.6,4,2.4,8.2,2.3,12.5-.1,4.2-1.1,8.5-2.8,12.3"></path>
          <path class="st0" d="M216.8,318.5c-2.3-2.4-5.1-4.3-8.3-5.6-3.1-1.3-6.5-2-9.8-2-3.4,0-6.7.7-9.8,2-3.1,1.3-5.9,3.3-8.3,5.6-4.7,4.8-7.3,11.5-7.1,18.1,0,3.3.8,6.6,2.1,9.6,1.3,3,3.2,5.7,5.6,8,4.7,4.5,11.1,7.2,17.6,7.1,6.5,0,12.9-2.6,17.6-7.1,2.3-2.3,4.2-5,5.6-8,1.3-3,2-6.3,2.1-9.6.2-6.6-2.4-13.3-7.1-18.1M214,351.9c-2,2-4.4,3.7-7,4.8-2.6,1.1-5.5,1.7-8.3,1.7-2.9,0-5.7-.6-8.3-1.7-2.6-1.1-5-2.8-7-4.8-4-4.1-6.1-9.7-6-15.3.1-5.6,2.6-11,6.5-14.8,3.9-3.8,9.3-6,14.8-6,5.4,0,10.8,2.2,14.8,6,4,3.8,6.4,9.2,6.5,14.8.1,5.6-2,11.2-5.9,15.3"></path>
          <g>
            <path class="st0" d="M209.1,331.5c1,0,1.9.9,1.9,1.9s-.8,1.9-1.9,1.9-1.9-.9-1.9-1.9.8-1.9,1.9-1.9"></path>
            <path class="st0" d="M209.1,337.9c1,0,1.9.9,1.9,1.9s-.8,1.9-1.9,1.9-1.9-.9-1.9-1.9.8-1.9,1.9-1.9"></path>
            <path class="st0" d="M202.2,325c1,0,1.9.8,1.9,1.9s-.9,1.9-1.9,1.9-1.9-.8-1.9-1.9.9-1.9,1.9-1.9"></path>
            <path class="st0" d="M202.2,331.5c1,0,1.9.9,1.9,1.9s-.9,1.9-1.9,1.9-1.9-.9-1.9-1.9.9-1.9,1.9-1.9"></path>
            <path class="st0" d="M202.2,337.9c1,0,1.9.9,1.9,1.9s-.9,1.9-1.9,1.9-1.9-.9-1.9-1.9.9-1.9,1.9-1.9"></path>
            <path class="st0" d="M202.2,344.4c1,0,1.9.9,1.9,1.9s-.9,1.9-1.9,1.9-1.9-.9-1.9-1.9.9-1.9,1.9-1.9"></path>
            <path class="st0" d="M195.2,325c1.1,0,1.9.8,1.9,1.9s-.8,1.9-1.9,1.9-1.9-.8-1.9-1.9.9-1.9,1.9-1.9"></path>
            <path class="st0" d="M195.2,337.9c1.1,0,1.9.9,1.9,1.9s-.8,1.9-1.9,1.9-1.9-.9-1.9-1.9.9-1.9,1.9-1.9"></path>
            <path class="st0" d="M195.2,344.4c1.1,0,1.9.9,1.9,1.9s-.8,1.9-1.9,1.9-1.9-.9-1.9-1.9.9-1.9,1.9-1.9"></path>
            <path class="st0" d="M188.3,331.5c1,0,1.9.9,1.9,1.9s-.9,1.9-1.9,1.9-1.9-.9-1.9-1.9.9-1.9,1.9-1.9"></path>
            <path class="st0" d="M188.3,337.9c1,0,1.9.9,1.9,1.9s-.9,1.9-1.9,1.9-1.9-.9-1.9-1.9.9-1.9,1.9-1.9"></path>
            <path class="st0" d="M212.5,350.4c-1.7,1.9-3.9,3.4-6.3,4.5-2.4,1-5,1.6-7.6,1.6-2.6,0-5.2-.5-7.6-1.6-2.4-1.1-4.5-2.6-6.2-4.5-3.5-3.8-5.2-9-4.6-13.8.6,4.8,2.8,9.2,6.2,12.2,3.4,3,7.8,4.8,12.2,4.8,4.5,0,8.9-1.7,12.2-4.8,3.4-3.1,5.6-7.4,6.2-12.2.6,4.8-1.1,10.1-4.6,13.8"></path>
            <path class="st0" d="M195.2,331.5c1.1,0,1.9.9,1.9,1.9s-.8,1.9-1.9,1.9-1.9-.9-1.9-1.9.9-1.9,1.9-1.9"></path>
          </g>
          <path class="st0" d="M279.2,221.4c-.3-5.3-1.4-13.5-4.9-22.9-5-13.8-13.1-25.1-24.1-33.6-5.5-4.3-11.5-7.4-18.2-9.5-8.9-2.8-16.7-7.1-23.3-12.8-1.9-1.7-4.4-3.8-6.8-5.7-1.5-1.2-3.5-1.9-5.5-1.9s-.3,0-.5,0c-1.7,0-3.3.6-4.8,1.6l-9,6.4-5.8,4.1c-4.8,3.4-9.8,6-14.9,8-8.6,3.2-16.2,7.8-22.7,13.8-18.5,17-21.4,39.3-21.7,50.1,0,.6,0,1.1,0,1.6v12.5c0,1.2.3,2.3.8,3.3l.7,1.3c.5,1.1.9,2.3,1,3.5.2,2.6.4,5.3.6,7.9.5,1.6,1.1,3.2,1.6,4.8,2.2,3.2,3.6,6.9,4.2,10.7,1.8,11.1,3.6,22.2,5.4,33.3.2.9.9,1.6,1.7,1.8,1.5.3,1.8.4,3.7.8.4,0,.8-.1,1-.5,1.4-2.3,3-4.6,4.3-6.9,1.2-2,3.9-2.5,5.7-1.1,2.1,1.6,4.2,3.2,6.3,4.8,1.8-1.4,3.7-2.9,5.5-4.3-4.9-1.3-10.3-4.4-14.5-7.2-4.8-3.2-8.3-7.7-10.3-12.9-3-8.1-7.2-21.3-7.4-32.6,0-3.5,1.3-6.9,4-9.3,7.2-6.5,26-18.4,66.8-18.4s59.5,11.9,66.8,18.4c2.7,2.4,4.1,5.8,4,9.3-.2,11.3-4.4,24.5-7.4,32.6-1.9,5.2-5.5,9.7-10.3,12.9-4.3,2.9-9.8,6.1-14.9,7.3,1.8,1.4,3.6,2.8,5.4,4.2,2.1-1.6,4.2-3.2,6.3-4.8,1.9-1.4,4.6-.9,5.7,1.1,1.3,2.3,2.9,4.6,4.3,6.9.2.3.6.5,1,.5,1.9-.4,2.3-.5,3.7-.8.9-.2,1.6-.9,1.7-1.8,1.8-11.1,3.6-22.2,5.4-33.3.6-3.8,2.1-7.5,4.2-10.7.5-1.6,1.1-3.2,1.6-4.8.2-2.6.4-5.3.6-7.9.1-1.2.4-2.4,1-3.5l.6-1.3c.5-1,.8-2.2.8-3.3v-5.3l.3-6.5h0ZM268.4,235.3c-.5-2.4-1.8-4.7-3.7-6.4-7.2-6.5-26-18.4-66.8-18.4s-59.5,11.9-66.8,18.4h0c-1.9,1.7-3.2,4-3.7,6.4-.2-1.5-.3-3.1-.3-4.5,0-3.5,1.3-6.9,4-9.3,7.2-6.5,26-18.4,66.8-18.4s59.5,11.9,66.8,18.4c2.7,2.4,4.1,5.8,4,9.3,0,1.5-.1,3-.3,4.5ZM234.4,200c-10.2-3.1-22.1-5.2-35.3-5.2s-1.2,0-1.7,0c-.5,0-.9,0-1.4,0-11.4.3-21.7,2.1-30.8,4.7-24,6.9-39.8,19.2-45,23.6,0-1-.1-3.1,0-6,.5-10.3,3.7-30.5,20.6-46,7.4-6.8,15.3-10.8,21.7-13.1,5.6-2.1,10.8-4.9,15.7-8.4,5-3.5,9.9-7,14.9-10.5.8-.6,1.9-1,2.9-1,.1,0,.3,0,.5,0,1.2,0,2.5.4,3.5,1.2,2.1,1.7,4.4,3.6,6.7,5.6,7,6.1,15.4,10.6,24.4,13.4,5.3,1.7,11.2,4.3,17.2,9,21,16.2,26.1,39.4,27.4,49.9.2,2,.4,3.5.4,4.5-4.9-3.9-19.5-15-41.7-21.6Z"></path>
        </g>
      </g>
    </g>
  </g>
</svg>